#!OML:ASF E:\Mandelcareful walks\Project 1\Capture day 1\Session 1\Subject1.ASF
:FULLY-SPECIFIED
:DEGREES
540
root 9.81219 14.3677 1.83684 376.608 -1.42917 717.278
lowerback 36.8147 2.52262 -1.7859
upperback 9.55563 1.89625 -4.93239
thorax -7.56162 0.969175 -5.02314
lowerneck -27.1946 15.591 9.78475
upperneck 14.2774 23.4991 -22.9702
head 13.6424 8.62647 -5.10017
rclavicle 1.27222e-014 -8.34896e-015
rhumerus -30.157 36.9419 -92.2187
rradius 55.3911
rwrist -80.6591
rhand -5.72284 -39.4433
rfingers 7.12502
rthumb 20.0988 -788.424
lclavicle 1.27222e-014 -8.34896e-015
lhumerus 124.681 -69.817 -32.761
lradius 55.0936
lwrist 1.78236
lhand 1.51561 -14.7501
lfingers 7.12502
lthumb 27.0413 13.3339
rfemur -39.3233 -7.33017 1.38399
rtibia 60.3466
rfoot -24.6897 -28.6893
rtoes -14.4975
lfemur -59.9918 11.0815 -18.2939
ltibia 77.447
lfoot -29.6344 8.15429
ltoes -6.96433
541
root 9.8751 14.4115 1.92018 376.041 -1.97712 717.106
lowerback 37.3902 2.88642 -2.18849
upperback 9.47388 2.18534 -4.66186
thorax -7.84026 1.09235 -4.65212
lowerneck -27.1796 15.6182 9.88063
upperneck 14.3188 23.5447 -23.0617
head 13.6965 8.63859 -5.13836
rclavicle -2.70347e-014 3.02153e-014
rhumerus -30.3035 37.4343 -92.021
rradius 55.6431
rwrist -80.6489
rhand -5.9469 -39.8236
rfingers 7.12502
rthumb 19.8834 -788.826
lclavicle -2.70347e-014 3.02153e-014
lhumerus 124.415 -70.0214 -32.6377
lradius 55.4458
lwrist 1.60008
lhand 1.09645 -14.5262
lfingers 7.12502
lthumb 26.6402 13.6194
rfemur -39.1937 -6.41531 1.71301
rtibia 60.2457
rfoot -24.7762 -28.8786
rtoes -13.9977
lfemur -58.628 11.7241 -18.3783
ltibia 77.1157
lfoot -30.1812 7.75561
ltoes -5.8375
542
root 9.93628 14.4413 1.99837 375.919 -2.23387 717.06
lowerback 37.3509 3.08468 -2.21912
upperback 9.3984 2.42453 -4.55404
thorax -7.89835 1.19903 -4.61324
lowerneck -27.228 15.6335 10.4588
upperneck 14.4837 23.4524 -23.2523
head 13.8707 8.59202 -5.32926
rclavicle -2.62396e-014 1.27222e-014
rhumerus -30.4078 37.3364 -91.9299
rradius 55.8315
rwrist -80.4483
rhand -5.14233 -39.6865
rfingers 7.12502
rthumb 20.6567 -788.607
lclavicle -2.62396e-014 1.27222e-014
lhumerus 125.472 -69.8556 -33.7716
lradius 55.704
lwrist 1.39287
lhand 0.568544 -14.0916
lfingers 7.12502
lthumb 26.1348 14.1298
rfemur -39.5149 -5.93785 2.00746
rtibia 60.3058
rfoot -24.9686 -29.1629
rtoes -12.0031
lfemur -57.9101 11.9788 -18.6173
ltibia 76.8719
lfoot -30.568 7.76418
ltoes -5.74643
543
root 9.99856 14.4665 2.07976 375.84 -2.45354 717.131
lowerback 37.128 3.23117 -2.25113
upperback 9.38785 2.61738 -4.42017
thorax -7.82575 1.28601 -4.51862
lowerneck -27.2369 15.5322 10.2121
upperneck 14.3891 23.2114 -22.731
head 13.6469 8.53985 -5.15658
rclavicle 2.3059e-014 -9.54166e-015
rhumerus -30.5227 37.387 -91.7129
rradius 56.1967
rwrist -80.3681
rhand -4.80718 -39.5653
rfingers 7.12502
rthumb 20.9787 -788.451
lclavicle 2.3059e-014 -9.54166e-015
lhumerus 126.19 -69.6744 -34.4919
lradius 55.9859
lwrist 1.09146
lhand -0.103414 -13.6814
lfingers 7.12502
lthumb 25.4913 14.6335
rfemur -39.9537 -5.83247 2.2775
rtibia 60.5008
rfoot -24.7745 -29.4979
rtoes -11.7138
lfemur -57.2485 11.8489 -18.9102
ltibia 76.6701
lfoot -31.0128 7.99922
ltoes -5.50713
544
root 10.0576 14.4884 2.16118 375.739 -2.77025 717.039
lowerback 36.9151 3.32888 -2.33178
upperback 9.38743 2.74227 -4.18224
thorax -7.75442 1.3382 -4.26074
lowerneck -27.3203 15.5895 10.227
upperneck 14.3272 23.227 -22.5968
head 13.6133 8.56061 -5.09766
rclavicle -3.18055e-015 6.79844e-014
rhumerus -30.6427 38.0062 -91.4354
rradius 56.7629
rwrist -80.4792
rhand -5.31682 -39.8301
rfingers 7.12502
rthumb 20.489 -788.769
lclavicle -3.18055e-015 6.79844e-014
lhumerus 125.709 -69.787 -34.0997
lradius 56.2757
lwrist 0.628357
lhand -0.742252 -13.5424
lfingers 7.12502
lthumb 24.8792 14.8586
rfemur -40.5088 -5.68975 2.80011
rtibia 60.8283
rfoot -24.6229 -29.7085
rtoes -12.3232
lfemur -56.5857 11.7282 -18.8864
ltibia 76.5395
lfoot -31.6005 7.70014
ltoes -3.26427
545
root 10.1098 14.5102 2.24154 375.657 -3.08721 716.821
lowerback 36.7301 3.38828 -2.43932
upperback 9.35772 2.81624 -3.86256
thorax -7.73269 1.36394 -3.88472
lowerneck -27.4163 15.8357 10.541
upperneck 14.29 23.4761 -22.6838
head 13.7185 8.67007 -5.10074
rclavicle -5.56597e-015 3.29983e-014
rhumerus -30.6585 38.8207 -91.127
rradius 57.169
rwrist -80.4218
rhand -5.44541 -39.869
rfingers 7.12502
rthumb 20.3654 -788.821
lclavicle -5.56597e-015 3.29983e-014
lhumerus 124.828 -70.071 -33.2659
lradius 56.4349
lwrist -0.181865
lhand -1.62531 -13.6348
lfingers 7.12502
lthumb 24.0327 14.8805
rfemur -41.139 -5.45216 3.48248
rtibia 61.2222
rfoot -24.8254 -29.7164
rtoes -11.2317
lfemur -55.9573 11.6628 -18.5538
ltibia 76.4601
lfoot -32.2937 6.52627
ltoes 1.29325
546
root 10.156 14.5333 2.32319 375.54 -3.53877 716.876
lowerback 36.5911 3.54712 -2.77093
upperback 9.31771 2.9211 -3.62518
thorax -7.74097 1.40602 -3.49403
lowerneck -27.3911 15.8785 10.2633
upperneck 14.1595 23.4782 -22.2557
head 13.5357 8.71628 -4.89305
rclavicle -1.82882e-014 4.37326e-014
rhumerus -30.6826 39.4327 -90.7853
rradius 57.6545
rwrist -80.4136
rhand -5.60852 -39.8128
rfingers 7.12502
rthumb 20.2087 -788.782
lclavicle -1.82882e-014 4.37326e-014
lhumerus 124.719 -70.214 -32.9635
lradius 56.42
lwrist -0.940081
lhand -2.92474 -13.6021
lfingers 7.12502
lthumb 22.7862 15.0722
rfemur -41.816 -5.23276 3.84741
rtibia 61.689
rfoot -25.0711 -29.5801
rtoes -9.54041
lfemur -55.214 11.661 -18.6132
ltibia 76.3222
lfoot -32.8935 5.87452
ltoes 3.83298
